<?xml version="1.0" encoding="UTF-8"?>
<svg version="1.1" xmlns="http://www.w3.org/2000/svg" width="564" height="554">
<path d="M0 0 C186.12 0 372.24 0 564 0 C564 182.82 564 365.64 564 554 C377.88 554 191.76 554 0 554 C0 371.18 0 188.36 0 0 Z " fill="#DCEAFA" transform="translate(0,0)"/>
<path d="M0 0 C3.2268998 1.42062515 5.39942512 3.14245441 7.890625 5.625 C8.59960938 6.33140625 9.30859375 7.0378125 10.0390625 7.765625 C10.76867187 8.50296875 11.49828125 9.2403125 12.25 10 C12.99507813 10.73734375 13.74015625 11.4746875 14.5078125 12.234375 C15.56355469 13.29398438 15.56355469 13.29398438 16.640625 14.375 C17.28547852 15.02210937 17.93033203 15.66921875 18.59472656 16.3359375 C20 18 20 18 20 20 C20.85609863 20.36931641 20.85609863 20.36931641 21.72949219 20.74609375 C24.3784281 22.20898997 26.18548546 23.92645319 28.328125 26.0625 C29.52695312 27.25746094 29.52695312 27.25746094 30.75 28.4765625 C31.575 29.30929688 32.4 30.14203125 33.25 31 C34.09046875 31.83273438 34.9309375 32.66546875 35.796875 33.5234375 C36.5909375 34.32007813 37.385 35.11671875 38.203125 35.9375 C39.29608887 37.03384766 39.29608887 37.03384766 40.41113281 38.15234375 C42 40 42 40 42 42 C43.32 42.66 44.64 43.32 46 44 C46 44.66 46 45.32 46 46 C47.32 46.66 48.64 47.32 50 48 C50 48.66 50 49.32 50 50 C51.32 50.66 52.64 51.32 54 52 C54 52.66 54 53.32 54 54 C54.53463867 54.21011719 55.06927734 54.42023438 55.62011719 54.63671875 C58.9245415 56.52961015 61.41594503 59.13065526 64.078125 61.8125 C64.64956238 62.38202393 65.22099976 62.95154785 65.80975342 63.53833008 C67.01234789 64.7395668 68.21243334 65.94331997 69.41015625 67.14941406 C71.25040717 69.00040955 73.10112633 70.84045446 74.953125 72.6796875 C76.12043384 73.84831724 77.28712251 75.01756684 78.453125 76.1875 C79.00929504 76.73962158 79.56546509 77.29174316 80.13848877 77.8605957 C84 81.77006365 84 81.77006365 84 84 C84.66 84 85.32 84 86 84 C85.75 85.875 85.75 85.875 85 88 C83.67532254 88.6837045 82.34136367 89.34964186 81 90 C80.31731862 91.32520503 79.6492959 92.65812182 79 94 C78.01 94.33 77.02 94.66 76 95 C78.63482263 100.26964527 82.79943911 103.97903554 87 108 C85.62401287 111.08339095 84.04656399 113.20912431 81.67337036 115.6007843 C80.98644104 116.29768875 80.29951172 116.9945932 79.59176636 117.71261597 C78.83848053 118.46656647 78.0851947 119.22051697 77.30908203 119.99731445 C76.51542236 120.79929764 75.7217627 121.60128082 74.90405273 122.42756653 C72.27743543 125.07829228 69.64320712 127.72128358 67.0078125 130.36328125 C65.18171442 132.1983418 63.35569618 134.03348181 61.52975464 135.86869812 C57.70178555 139.71315985 53.86946095 143.55321617 50.03466797 147.39086914 C45.5988746 151.83030487 41.17640786 156.28272295 36.75975144 160.74119025 C32.51085527 165.02889579 28.24833897 169.30278926 23.98055649 173.57170677 C22.1655037 175.39097964 20.35459343 177.21439486 18.54785538 179.04192543 C16.02673795 181.58974553 13.49047562 184.12145608 10.94970703 186.6496582 C10.20046967 187.41372986 9.4512323 188.17780151 8.67929077 188.96502686 C7.64043732 189.98923485 7.64043732 189.98923485 6.58059692 191.03413391 C5.98218554 191.63455663 5.38377415 192.23497934 4.76722908 192.85359669 C3 194 3 194 0.90121269 193.80304241 C-2.51792827 192.35885091 -4.58157093 189.34736719 -7 186.6171875 C-8.83466106 184.78051879 -8.83466106 184.78051879 -11.03125 185.03125 C-14.13557451 186.55877476 -15.97700826 189.02355949 -18.21875 191.6015625 C-20 193 -20 193 -21.88432693 192.79185581 C-24.43019538 191.83898613 -25.71591228 190.65356085 -27.63201904 188.72874451 C-28.33589249 188.02899506 -29.03976593 187.32924561 -29.76496887 186.60829163 C-30.52669907 185.8357756 -31.28842926 185.06325958 -32.07324219 184.26733398 C-32.88337265 183.4576416 -33.69350311 182.64794922 -34.52818298 181.8137207 C-37.20825085 179.13156029 -39.87753212 176.43892464 -42.546875 173.74609375 C-44.40138444 171.88599005 -46.25655666 170.02654693 -48.11236572 168.16773987 C-52.49922736 163.77155434 -56.8783857 159.36777755 -61.25483155 154.96122557 C-66.23801985 149.94450397 -71.22973046 144.93629934 -76.22217703 139.92879379 C-86.49096366 129.62865037 -96.74900094 119.31784586 -107 109 C-105.50589093 105.8482171 -103.99588343 103.82496846 -101.4375 101.4375 C-99.00373705 99.1656506 -98.07740206 98.23220618 -97 95 C-97.556875 94.773125 -98.11375 94.54625 -98.6875 94.3125 C-101.71572375 92.59377841 -103.77323664 90.67211603 -106 88 C-105.71306799 84.50058133 -104.15722052 82.78546839 -101.72874451 80.36798096 C-101.02899506 79.66410751 -100.32924561 78.96023407 -99.60829163 78.23503113 C-98.8357756 77.47330093 -98.06325958 76.71157074 -97.26733398 75.92675781 C-96.4576416 75.11662735 -95.64794922 74.30649689 -94.8137207 73.47181702 C-92.13156029 70.79174915 -89.43892464 68.12246788 -86.74609375 65.453125 C-84.88599005 63.59861556 -83.02654693 61.74344334 -81.16773987 59.88763428 C-76.77155434 55.50077264 -72.36777755 51.1216143 -67.96122557 46.74516845 C-62.94450397 41.76198015 -57.93629934 36.77026954 -52.92879379 31.77782297 C-42.62865037 21.50903634 -32.31784586 11.25099906 -22 1 C-18.28901229 2.76262391 -16.22389972 4.76737723 -13.5625 7.85546875 C-12.0640141 9.20120987 -12.0640141 9.20120987 -10.078125 8.9296875 C-7.37229922 7.71918649 -5.78960396 6.07908416 -3.75 3.9375 C-3.04359375 3.20402344 -2.3371875 2.47054687 -1.609375 1.71484375 C-1.07828125 1.14894531 -0.5471875 0.58304687 0 0 Z " fill="#DCEAFA" transform="translate(294,108)"/>
<path d="M0 0 C3.01041443 1.69130953 5.2757487 4.02534125 7.65869141 6.48144531 C8.18573669 7.01273544 8.71278198 7.54402557 9.25579834 8.09141541 C10.93373828 9.78611731 12.60093369 11.49096123 14.26806641 13.19628906 C15.40539385 14.34866652 16.54340707 15.50036758 17.68212891 16.65136719 C20.46878632 19.47106091 23.24585432 22.29989495 26.01806641 25.13378906 C24.58853413 28.10074285 23.07986247 30.41175873 20.89306641 32.88378906 C20.35423828 33.49738281 19.81541016 34.11097656 19.26025391 34.74316406 C18.85033203 35.20207031 18.44041016 35.66097656 18.01806641 36.13378906 C20.3061328 39.27988036 22.75744919 41.84886818 25.70744324 44.35462952 C29.81783312 47.91454923 33.66931315 51.66952636 37.48803711 55.5378418 C38.18664352 56.24112106 38.88524994 56.94440033 39.60502625 57.66899109 C41.10653625 59.18092466 42.60693691 60.6939606 44.10631752 62.20800591 C46.47799806 64.60185238 48.85374963 66.9915873 51.23075867 69.38014221 C57.98324229 76.16610557 64.73138256 82.95634387 71.46948242 89.7565918 C75.60254825 93.92719703 79.74280426 98.09054519 83.88783836 102.24925423 C85.46511904 103.8346056 87.03961457 105.42273288 88.61129189 107.01363945 C90.79910888 109.22778656 92.99591406 111.4326196 95.19506836 113.63549805 C95.84496735 114.29775391 96.49486633 114.96000977 97.16445923 115.64233398 C97.76284103 116.23803696 98.36122284 116.83373993 98.97773743 117.44749451 C99.49553426 117.96935554 100.01333109 118.49121656 100.54681873 119.02889156 C102.11121949 120.43404323 102.11121949 120.43404323 105.01806641 120.13378906 C105.01806641 119.47378906 105.01806641 118.81378906 105.01806641 118.13378906 C105.67806641 118.13378906 106.33806641 118.13378906 107.01806641 118.13378906 C107.34806641 117.14378906 107.67806641 116.15378906 108.01806641 115.13378906 C108.67806641 115.13378906 109.33806641 115.13378906 110.01806641 115.13378906 C110.01806641 114.47378906 110.01806641 113.81378906 110.01806641 113.13378906 C111.00806641 112.80378906 111.99806641 112.47378906 113.01806641 112.13378906 C116.61590592 115.58338162 120.19363175 119.05218189 123.75415039 122.5402832 C124.96821667 123.72416417 126.18761168 124.90260591 127.41235352 126.07543945 C129.17151526 127.76186731 130.9106154 129.46689831 132.64697266 131.17675781 C133.47498131 131.9583149 133.47498131 131.9583149 134.31971741 132.75566101 C136.56761391 135.0015225 137.96890228 136.4064991 138.18798828 139.64746094 C136.6063473 143.00877808 134.31305143 145.33438617 131.67041016 147.87207031 C131.13912003 148.39770065 130.6078299 148.92333099 130.06044006 149.46488953 C128.36800059 151.13500955 126.66216645 152.79065383 124.95556641 154.44628906 C123.80296067 155.57882415 122.65125699 156.71227805 121.50048828 157.84667969 C118.6833552 160.61980437 115.85412912 163.38003199 113.01806641 166.13378906 C112.55916016 165.71226562 112.10025391 165.29074219 111.62744141 164.85644531 C111.01384766 164.30859375 110.40025391 163.76074219 109.76806641 163.19628906 C109.16478516 162.65101563 108.56150391 162.10574219 107.93994141 161.54394531 C105.83048319 159.99615178 104.61343278 159.40780633 102.01806641 159.13378906 C100.11603537 160.29321244 100.11603537 160.29321244 98.38604736 162.16453552 C97.68217392 162.86153564 96.97830048 163.55853577 96.25309753 164.2766571 C95.11050224 165.44621696 95.11050224 165.44621696 93.94482422 166.6394043 C93.13469376 167.44880463 92.32456329 168.25820496 91.48988342 169.09213257 C88.80497187 171.78053801 86.13821819 174.48624331 83.47119141 177.19238281 C81.61711793 179.05577786 79.7619402 180.91807479 77.90570068 182.77931213 C73.51479017 187.1857768 69.13678233 191.60483428 64.76323485 196.02852541 C59.78398442 201.06362051 54.79056584 206.0845621 49.79588938 211.10434806 C39.52074555 221.43178556 29.26356346 231.77694047 19.01806641 242.13378906 C20.06589921 245.27728748 20.59720309 245.86630092 23.08056641 247.82128906 C24.04994141 248.58441406 25.01931641 249.34753906 26.01806641 250.13378906 C25.55854611 254.46484815 22.74108371 256.87835834 19.81103516 259.80957031 C19.28923172 260.33898727 18.76742828 260.86840424 18.22981262 261.41386414 C17.12657029 262.527893 16.01934606 263.6379907 14.90844727 264.74438477 C13.20790748 266.44394934 11.52982296 268.16373404 9.85205078 269.88574219 C8.7771816 270.96581621 7.70105127 272.04463693 6.62353516 273.12207031 C6.12234665 273.63965408 5.62115814 274.15723785 5.1047821 274.69050598 C1.63683876 278.09079142 1.63683876 278.09079142 -0.97753906 278.27246094 C-3.94887787 276.58447991 -6.25940714 274.32411361 -8.65771484 271.92675781 C-9.18713181 271.40495438 -9.71654877 270.88315094 -10.26200867 270.34553528 C-11.37603753 269.24229295 -12.48613524 268.13506871 -13.5925293 267.02416992 C-15.29209387 265.32363013 -17.01187857 263.64554562 -18.73388672 261.96777344 C-19.81396074 260.89290425 -20.89278146 259.81677392 -21.97021484 258.73925781 C-22.7465905 257.98747505 -22.7465905 257.98747505 -23.53865051 257.22050476 C-26.98174948 253.708896 -26.98174948 253.708896 -26.98266602 250.84594727 C-25.98193359 249.13378906 -25.98193359 249.13378906 -22.98193359 248.13378906 C-22.98193359 247.47378906 -22.98193359 246.81378906 -22.98193359 246.13378906 C-21.35640076 244.42697959 -19.69077365 242.75718711 -17.98193359 241.13378906 C-18.56858921 240.87217295 -19.15524483 240.61055683 -19.75967789 240.34101295 C-22.11078683 239.0637905 -23.65283934 237.70924696 -25.5380249 235.81820679 C-26.22507004 235.13391098 -26.91211517 234.44961517 -27.61997986 233.74458313 C-28.36300858 232.99436386 -29.10603729 232.24414459 -29.87158203 231.47119141 C-31.05751701 230.2856945 -31.05751701 230.2856945 -32.26741028 229.07624817 C-34.88014469 226.46212016 -37.48572313 223.84097863 -40.09130859 221.21972656 C-41.90119551 219.40610963 -43.71152442 217.59293369 -45.52227783 215.78018188 C-49.8005543 211.49504872 -54.0743466 207.20549256 -58.34599996 202.91376078 C-63.21024377 198.02715127 -68.08017745 193.14622916 -72.95059538 188.26577449 C-82.96738158 178.22809117 -92.97700781 168.18329314 -102.98193359 158.13378906 C-105.89441802 159.44810937 -107.2271772 160.39742594 -109.48193359 162.82128906 C-111.98193359 165.13378906 -111.98193359 165.13378906 -113.78564453 165.11254883 C-117.01638177 163.67279498 -119.19623271 161.28695201 -121.62255859 158.78613281 C-122.14960388 158.25484268 -122.67664917 157.72355255 -123.21966553 157.17616272 C-124.89760546 155.48146081 -126.56480088 153.7766169 -128.23193359 152.07128906 C-129.36926104 150.91891161 -130.50727426 149.76721054 -131.64599609 148.61621094 C-134.43265351 145.79651722 -137.20972151 142.96768318 -139.98193359 140.13378906 C-138.37820211 136.1286151 -135.56079373 133.45667927 -132.53662109 130.49316406 C-132.00674591 129.96611877 -131.47687073 129.43907349 -130.93093872 128.89605713 C-129.24425534 127.22053231 -127.55073796 125.55211184 -125.85693359 123.88378906 C-124.70933971 122.74623055 -123.56219898 121.6082147 -122.41552734 120.46972656 C-119.60955222 117.68575442 -116.79742896 114.90813147 -113.98193359 112.13378906 C-112.49693359 112.62878906 -112.49693359 112.62878906 -110.98193359 113.13378906 C-110.98193359 113.79378906 -110.98193359 114.45378906 -110.98193359 115.13378906 C-110.32193359 115.13378906 -109.66193359 115.13378906 -108.98193359 115.13378906 C-107.26757179 117.09305969 -105.59788192 119.09259118 -103.98193359 121.13378906 C-100.91755182 119.76401958 -98.79690412 118.20432741 -96.41911316 115.84512329 C-95.73062286 115.16660812 -95.04213257 114.48809296 -94.33277893 113.78901672 C-93.58817917 113.04508163 -92.84357941 112.30114655 -92.07641602 111.53466797 C-91.2841864 110.75076187 -90.49195679 109.96685577 -89.67572021 109.15919495 C-87.0574607 106.56504233 -84.44693496 103.96328092 -81.83740234 101.36035156 C-80.02476199 99.55667377 -78.21204223 97.75307578 -76.39924622 95.94955444 C-72.60186318 92.1686636 -68.8088837 88.38341621 -65.01831055 84.59570312 C-60.63340543 80.21444042 -56.23551992 75.84650669 -51.83158416 71.48438132 C-47.59621784 67.28782484 -43.37462083 63.07760453 -39.15804482 58.86216354 C-37.36110058 57.06943928 -35.56001412 55.2808574 -33.75481224 53.49644852 C-31.23812281 51.00646262 -28.73754987 48.50133681 -26.24047852 45.99169922 C-25.4857576 45.25181259 -24.73103668 44.51192596 -23.95344543 43.74961853 C-23.27905426 43.06546371 -22.60466309 42.3813089 -21.90983582 41.67642212 C-21.31678744 41.08538507 -20.72373907 40.49434803 -20.11271954 39.88540077 C-18.75559221 38.18369498 -18.75559221 38.18369498 -19.19713306 36.03249168 C-20.21313211 33.57444027 -21.61797248 32.20517048 -23.54443359 30.38378906 C-24.18509766 29.77019531 -24.82576172 29.15660156 -25.48583984 28.52441406 C-25.97955078 28.06550781 -26.47326172 27.60660156 -26.98193359 27.13378906 C-25.39484704 23.27399912 -22.78489481 20.59791696 -19.89599609 17.67675781 C-19.14870743 16.91592644 -19.14870743 16.91592644 -18.38632202 16.13972473 C-17.33498747 15.07392737 -16.28085762 14.010881 -15.22412109 12.95043945 C-13.60696399 11.32131968 -12.00939635 9.67447187 -10.41162109 8.02636719 C-9.38673197 6.99202078 -8.36072756 5.95877802 -7.33349609 4.92675781 C-6.85731842 4.43104782 -6.38114075 3.93533783 -5.89053345 3.42460632 C-2.59712821 0.17531735 -2.59712821 0.17531735 0 0 Z M7.99462891 44.13769531 C6.42800349 45.84224623 4.86548865 47.55058435 3.30712891 49.26269531 C1.01806641 51.13378906 1.01806641 51.13378906 -1.03662109 51.13378906 C-3.39551469 49.92118512 -4.91113902 48.49712948 -6.73193359 46.57128906 C-7.34552734 45.930625 -7.95912109 45.28996094 -8.59130859 44.62988281 C-9.27966797 43.88931641 -9.27966797 43.88931641 -9.98193359 43.13378906 C-13.06532454 44.5097762 -15.19105791 46.08722507 -17.5827179 48.4604187 C-18.27962234 49.14734802 -18.97652679 49.83427734 -19.69454956 50.54202271 C-20.44850006 51.29530853 -21.20245056 52.04859436 -21.97924805 52.82470703 C-22.78123123 53.6183667 -23.58321442 54.41202637 -24.40950012 55.22973633 C-27.06022588 57.85635363 -29.70321717 60.49058195 -32.34521484 63.12597656 C-34.18027539 64.95207464 -36.0154154 66.77809288 -37.85063171 68.60403442 C-41.69509344 72.43200351 -45.53514976 76.26432811 -49.37280273 80.09912109 C-53.81223847 84.53491447 -58.26465654 88.9573812 -62.72312385 93.37403762 C-67.01082938 97.62293379 -71.28472285 101.88545009 -75.55364037 106.15323257 C-77.37291323 107.96828537 -79.19632845 109.77919563 -81.02385902 111.58593369 C-83.57167912 114.10705111 -86.10338967 116.64331344 -88.6315918 119.18408203 C-89.39566345 119.9333194 -90.15973511 120.68255676 -90.94696045 121.45449829 C-91.62976578 122.14706726 -92.31257111 122.83963623 -93.0160675 123.55319214 C-93.61649022 124.15160353 -94.21691294 124.75001492 -94.83553028 125.36655998 C-96.21318231 127.08258421 -96.21318231 127.08258421 -95.75104046 129.25113106 C-94.84439496 131.47046297 -93.76276124 132.72007819 -92.04443359 134.38378906 C-91.51978516 134.90457031 -90.99513672 135.42535156 -90.45458984 135.96191406 C-89.03477524 137.34134507 -89.03477524 137.34134507 -86.98193359 137.13378906 C-89.48540008 141.9934593 -93.067458 145.41235611 -96.98193359 149.13378906 C-95.60594646 152.21718001 -94.02849759 154.34291338 -91.65530396 156.73457336 C-90.96837463 157.43147781 -90.28144531 158.12838226 -89.57369995 158.84640503 C-88.82041412 159.60035553 -88.0671283 160.35430603 -87.29101562 161.13110352 C-86.49735596 161.9330867 -85.70369629 162.73506989 -84.88598633 163.56135559 C-82.25936903 166.21208134 -79.62514071 168.85507264 -76.98974609 171.49707031 C-75.16364801 173.33213086 -73.33762977 175.16727087 -71.51168823 177.00248718 C-67.68371914 180.84694891 -63.85139454 184.68700523 -60.01660156 188.5246582 C-55.58080819 192.96409394 -51.15834145 197.41651201 -46.74168503 201.87497932 C-42.49278887 206.16268485 -38.23027256 210.43657832 -33.96249008 214.70549583 C-32.14743729 216.5247687 -30.33652702 218.34818392 -28.52978897 220.17571449 C-26.00867155 222.72353459 -23.47240921 225.25524514 -20.93164062 227.78344727 C-20.18240326 228.54751892 -19.43316589 229.31159058 -18.66122437 230.09881592 C-17.9686554 230.78162125 -17.27608643 231.46442657 -16.56253052 232.16792297 C-15.96411913 232.76834569 -15.36570774 233.36876841 -14.74916267 233.98738575 C-13.03444839 235.36118011 -13.03444839 235.36118011 -10.86947441 234.9231596 C-7.73110165 233.6106905 -5.95689994 231.05500037 -3.76318359 228.53222656 C-1.98193359 227.13378906 -1.98193359 227.13378906 -0.01318359 227.16503906 C3.4227063 228.80369424 5.52761066 231.70511051 8.01806641 234.51660156 C9.83889672 236.37742196 9.83889672 236.37742196 11.91606522 235.93931675 C14.44210208 234.97129035 15.74286238 233.77842583 17.65008545 231.86253357 C18.35395889 231.16278412 19.05783234 230.46303467 19.78303528 229.74208069 C20.54476547 228.96956467 21.30649567 228.19704865 22.09130859 227.40112305 C22.90143906 226.59143066 23.71156952 225.78173828 24.54624939 224.94750977 C27.22631725 222.26534935 29.89559852 219.5727137 32.56494141 216.87988281 C34.41945084 215.01977912 36.27462306 213.160336 38.13043213 211.30152893 C42.51729377 206.90534341 46.89645211 202.50156661 51.27289796 198.09501463 C56.25608626 193.07829304 61.24779686 188.0700884 66.24024343 183.06258285 C76.50903006 172.76243943 86.76706734 162.45163493 97.01806641 152.13378906 C95.4281868 148.75259514 93.68586689 146.643024 90.95556641 144.07128906 C87.12878697 140.46595075 87.12878697 140.46595075 86.01806641 137.13378906 C86.97712891 136.73160156 86.97712891 136.73160156 87.95556641 136.32128906 C90.34938327 135.24711154 90.34938327 135.24711154 91.01806641 132.13378906 C91.67806641 131.82441406 92.33806641 131.51503906 93.01806641 131.19628906 C95.22412202 130.31351765 95.22412202 130.31351765 95.76806641 128.00878906 C95.85056641 127.39003906 95.93306641 126.77128906 96.01806641 126.13378906 C95.35806641 126.13378906 94.69806641 126.13378906 94.01806641 126.13378906 C93.80794922 125.59915039 93.59783203 125.06451172 93.38134766 124.51367188 C91.48845626 121.20924756 88.88741115 118.71784403 86.20556641 116.05566406 C85.63604248 115.48422668 85.06651855 114.91278931 84.47973633 114.32403564 C83.27849961 113.12144117 82.07474643 111.92135572 80.86865234 110.72363281 C79.01765686 108.88338189 77.17761195 107.03266273 75.33837891 105.18066406 C74.16974917 104.01335522 73.00049956 102.84666655 71.83056641 101.68066406 C71.27844482 101.12449402 70.72632324 100.56832397 70.1574707 99.99530029 C67.57018153 97.06464105 67.57018153 97.06464105 64.01806641 96.13378906 C63.02806641 94.15378906 63.02806641 94.15378906 62.01806641 92.13378906 C61.35806641 92.13378906 60.69806641 92.13378906 60.01806641 92.13378906 C59.02806641 90.15378906 59.02806641 90.15378906 58.01806641 88.13378906 C57.35806641 88.13378906 56.69806641 88.13378906 56.01806641 88.13378906 C55.02806641 86.15378906 55.02806641 86.15378906 54.01806641 84.13378906 C53.35806641 84.13378906 52.69806641 84.13378906 52.01806641 84.13378906 C51.64875 83.27769043 51.64875 83.27769043 51.27197266 82.40429688 C49.80907644 79.75536097 48.09161321 77.9483036 45.95556641 75.80566406 C45.15892578 75.00644531 44.36228516 74.20722656 43.54150391 73.38378906 C42.70876953 72.55878906 41.87603516 71.73378906 41.01806641 70.88378906 C40.18533203 70.04332031 39.35259766 69.20285156 38.49462891 68.33691406 C37.69798828 67.54285156 36.90134766 66.74878906 36.08056641 65.93066406 C34.98421875 64.8377002 34.98421875 64.8377002 33.86572266 63.72265625 C32.17147499 61.91645185 32.17147499 61.91645185 30.01806641 62.13378906 C29.76283203 61.5540332 29.50759766 60.97427734 29.24462891 60.37695312 C27.89221864 57.90363594 26.38074117 56.23776797 24.39306641 54.24316406 C23.68666016 53.53417969 22.98025391 52.82519531 22.25244141 52.09472656 C21.51509766 51.36511719 20.77775391 50.63550781 20.01806641 49.88378906 C19.28072266 49.13871094 18.54337891 48.39363281 17.78369141 47.62597656 C17.07728516 46.92214844 16.37087891 46.21832031 15.64306641 45.49316406 C14.67240234 44.52588379 14.67240234 44.52588379 13.68212891 43.5390625 C11.0497982 41.31610248 10.41428844 41.74139156 7.99462891 44.13769531 Z " fill="#29C0EF" transform="translate(283.98193359375,65.8662109375)"/>
<path d="M0 0 C2.97 0 5.94 0 9 0 C9.55945313 1.0209375 10.11890625 2.041875 10.6953125 3.09375 C16.14753535 12.99802203 21.76256796 22.79711866 27.4753418 32.55322266 C31.82310198 39.97838822 36.14110966 47.41999415 40.4375 54.875 C41.05318848 55.94298828 41.66887695 57.01097656 42.30322266 58.11132812 C44.87813785 62.57907065 47.45178582 67.04754183 50.02441406 71.51660156 C51.38115258 73.87346291 52.73833221 76.23006924 54.09594727 78.58642578 C55.36546119 80.79006869 56.63423268 82.99413955 57.90209961 85.19873047 C61.1661782 90.86384007 64.48419282 96.48308046 67.93139648 102.0390625 C69 104 69 104 69 106 C69.66 106 70.32 106 71 106 C71.27295898 105.28046143 71.54591797 104.56092285 71.82714844 103.81958008 C72.98060771 101.0466198 74.29738687 98.5052063 75.765625 95.88671875 C76.31847168 94.89889404 76.87131836 93.91106934 77.44091797 92.89331055 C78.33641357 91.30643433 78.33641357 91.30643433 79.25 89.6875 C79.87406738 88.57737549 80.49813477 87.46725098 81.14111328 86.32348633 C85.88369692 77.91412229 90.72246106 69.56308564 95.60644531 61.23510742 C99.43502542 54.70178305 103.21917975 48.14455444 106.96704102 41.56469727 C108.31331728 39.20114465 109.66548834 36.84113629 111.02319336 34.48413086 C114.04037203 29.23896332 117.02888594 23.98799433 119.87142944 18.64562988 C120.7905384 16.92443682 121.72617374 15.21210143 122.66210938 13.5 C123.81759581 11.38478611 124.94679412 9.25492717 126.04492188 7.109375 C126.56505859 6.1709375 127.08519531 5.2325 127.62109375 4.265625 C128.0586499 3.43836914 128.49620605 2.61111328 128.94702148 1.75878906 C131 0 131 0 140 0 C140 45.54 140 91.08 140 138 C136.7 138 133.4 138 130 138 C129.67 100.05 129.34 62.1 129 23 C123.23770912 32.79589449 117.47947118 42.58736636 111.8125 52.4375 C111.18158447 53.53239746 110.55066895 54.62729492 109.90063477 55.75537109 C107.93309543 59.16986707 105.96646966 62.58488789 104 66 C101.48004705 70.37550788 98.95926804 74.75053796 96.4375 79.125 C95.82600098 80.185979 95.21450195 81.24695801 94.58447266 82.34008789 C89.55401041 91.05942302 84.48447393 99.75567722 79.39038086 108.43798828 C78.84260986 109.37368652 78.29483887 110.30938477 77.73046875 111.2734375 C77.24989014 112.09247559 76.76931152 112.91151367 76.27416992 113.75537109 C75.10934848 115.80736732 74.03208627 117.87870875 73 120 C71.02 120 69.04 120 67 120 C66.59386475 119.2879541 66.18772949 118.5759082 65.76928711 117.84228516 C53.00283225 95.46565103 40.18682194 73.11864682 27.18115234 50.87988281 C21.75779424 41.60339642 16.3841362 32.29987161 11 23 C10.67 60.95 10.34 98.9 10 138 C6.7 138 3.4 138 0 138 C0 92.46 0 46.92 0 0 Z " fill="#29304F" transform="translate(335,383)"/>
<path d="M0 0 C3.01041443 1.69130953 5.2757487 4.02534125 7.65869141 6.48144531 C8.18573669 7.01273544 8.71278198 7.54402557 9.25579834 8.09141541 C10.93373828 9.78611731 12.60093369 11.49096123 14.26806641 13.19628906 C15.40539385 14.34866652 16.54340707 15.50036758 17.68212891 16.65136719 C20.46878632 19.47106091 23.24585432 22.29989495 26.01806641 25.13378906 C21.47821523 34.49760993 12.86231485 41.33269788 5.22509766 48.14550781 C3.78943131 49.43887802 2.38443831 50.76741716 1.01806641 52.13378906 C-2.60185095 51.84210151 -4.30557172 50.13763335 -6.73193359 47.57128906 C-7.34552734 46.930625 -7.95912109 46.28996094 -8.59130859 45.62988281 C-9.05021484 45.13617188 -9.50912109 44.64246094 -9.98193359 44.13378906 C-13.04631536 45.50355855 -15.16696307 47.06325072 -17.54475403 49.42245483 C-18.23324432 50.10097 -18.92173462 50.77948517 -19.63108826 51.4785614 C-20.37568802 52.22249649 -21.12028778 52.96643158 -21.88745117 53.73291016 C-22.67968079 54.51681625 -23.4719104 55.30072235 -24.28814697 56.10838318 C-26.90640649 58.7025358 -29.51693223 61.30429721 -32.12646484 63.90722656 C-33.93910519 65.71090435 -35.75182496 67.51450234 -37.56462097 69.31802368 C-41.36200401 73.09891452 -45.15498349 76.88416191 -48.94555664 80.671875 C-53.33046175 85.05313771 -57.72834727 89.42107143 -62.13228303 93.78319681 C-66.36764935 97.97975329 -70.58924636 102.18997359 -74.80582237 106.40541458 C-76.60276661 108.19813885 -78.40385306 109.98672073 -80.20905495 111.77112961 C-82.72574438 114.26111551 -85.22631732 116.76624131 -87.72338867 119.27587891 C-88.47810959 120.01576553 -89.23283051 120.75565216 -90.01042175 121.51795959 C-90.68481293 122.20211441 -91.3592041 122.88626923 -92.05403137 123.59115601 C-92.64707974 124.18219305 -93.24012812 124.77323009 -93.85114765 125.38217735 C-95.20927796 127.08576451 -95.20927796 127.08576451 -94.76673412 129.24875832 C-93.75950028 131.66805683 -92.45591439 132.75460443 -90.41943359 134.38378906 C-89.77876953 134.90457031 -89.13810547 135.42535156 -88.47802734 135.96191406 C-87.98431641 136.34863281 -87.49060547 136.73535156 -86.98193359 137.13378906 C-87.55015859 140.80289904 -88.92572958 142.37857141 -91.60693359 144.88378906 C-94.39009336 147.55304728 -96.99697447 150.24754725 -99.48193359 153.19628906 C-103.31973883 157.64006355 -107.47881337 162.29461434 -112.73413086 165.05371094 C-114.98193359 165.13378906 -114.98193359 165.13378906 -117.73095703 162.95239258 C-118.78065212 161.90190499 -119.81664417 160.83761241 -120.84130859 159.76269531 C-121.66517059 158.92822121 -121.66517059 158.92822121 -122.50567627 158.07688904 C-124.25981675 156.2947264 -125.99580262 154.49598383 -127.73193359 152.69628906 C-128.91697703 151.48617305 -130.10316166 150.27717345 -131.29052734 149.06933594 C-134.20107037 146.10361981 -137.09544541 143.12291496 -139.98193359 140.13378906 C-138.37820211 136.1286151 -135.56079373 133.45667927 -132.53662109 130.49316406 C-132.00674591 129.96611877 -131.47687073 129.43907349 -130.93093872 128.89605713 C-129.24425534 127.22053231 -127.55073796 125.55211184 -125.85693359 123.88378906 C-124.70933971 122.74623055 -123.56219898 121.6082147 -122.41552734 120.46972656 C-119.60955222 117.68575442 -116.79742896 114.90813147 -113.98193359 112.13378906 C-112.49693359 112.62878906 -112.49693359 112.62878906 -110.98193359 113.13378906 C-110.98193359 113.79378906 -110.98193359 114.45378906 -110.98193359 115.13378906 C-110.32193359 115.13378906 -109.66193359 115.13378906 -108.98193359 115.13378906 C-107.26757179 117.09305969 -105.59788192 119.09259118 -103.98193359 121.13378906 C-100.91755182 119.76401958 -98.79690412 118.20432741 -96.41911316 115.84512329 C-95.73062286 115.16660812 -95.04213257 114.48809296 -94.33277893 113.78901672 C-93.58817917 113.04508163 -92.84357941 112.30114655 -92.07641602 111.53466797 C-91.2841864 110.75076187 -90.49195679 109.96685577 -89.67572021 109.15919495 C-87.0574607 106.56504233 -84.44693496 103.96328092 -81.83740234 101.36035156 C-80.02476199 99.55667377 -78.21204223 97.75307578 -76.39924622 95.94955444 C-72.60186318 92.1686636 -68.8088837 88.38341621 -65.01831055 84.59570312 C-60.63340543 80.21444042 -56.23551992 75.84650669 -51.83158416 71.48438132 C-47.59621784 67.28782484 -43.37462083 63.07760453 -39.15804482 58.86216354 C-37.36110058 57.06943928 -35.56001412 55.2808574 -33.75481224 53.49644852 C-31.23812281 51.00646262 -28.73754987 48.50133681 -26.24047852 45.99169922 C-25.4857576 45.25181259 -24.73103668 44.51192596 -23.95344543 43.74961853 C-23.27905426 43.06546371 -22.60466309 42.3813089 -21.90983582 41.67642212 C-21.31678744 41.08538507 -20.72373907 40.49434803 -20.11271954 39.88540077 C-18.75559221 38.18369498 -18.75559221 38.18369498 -19.19713306 36.03249168 C-20.21313211 33.57444027 -21.61797248 32.20517048 -23.54443359 30.38378906 C-24.18509766 29.77019531 -24.82576172 29.15660156 -25.48583984 28.52441406 C-25.97955078 28.06550781 -26.47326172 27.60660156 -26.98193359 27.13378906 C-25.39484704 23.27399912 -22.78489481 20.59791696 -19.89599609 17.67675781 C-19.14870743 16.91592644 -19.14870743 16.91592644 -18.38632202 16.13972473 C-17.33498747 15.07392737 -16.28085762 14.010881 -15.22412109 12.95043945 C-13.60696399 11.32131968 -12.00939635 9.67447187 -10.41162109 8.02636719 C-9.38673197 6.99202078 -8.36072756 5.95877802 -7.33349609 4.92675781 C-6.85731842 4.43104782 -6.38114075 3.93533783 -5.89053345 3.42460632 C-2.59712821 0.17531735 -2.59712821 0.17531735 0 0 Z " fill="#AB4AE1" transform="translate(283.98193359375,65.8662109375)"/>
<path d="M0 0 C-0.99 2.97 -1.98 5.94 -3 9 C-3.63164062 8.61328125 -4.26328125 8.2265625 -4.9140625 7.828125 C-14.37943661 2.31802249 -24.9582839 -1.53053928 -36 -2 C-37.17046875 -2.06316406 -38.3409375 -2.12632812 -39.546875 -2.19140625 C-50.84165762 -2.61642678 -62.07310788 -1.75140489 -71.125 5.75 C-76.95457639 11.66642296 -79.19059206 16.25861935 -79.4375 24.625 C-79.21550013 31.03339629 -77.9898326 34.66905324 -73.8125 39.5625 C-67.60156572 44.94530971 -61.3169525 47.88653295 -53.4375 50.0625 C-52.56125977 50.31580078 -51.68501953 50.56910156 -50.78222656 50.83007812 C-45.62637578 52.30855267 -40.44556763 53.66936047 -35.25 55 C-19.96407354 59.02962332 -4.59442913 63.71563026 4 78 C7.07055127 85.47167475 7.46179438 94.82399186 4.75 102.5 C-0.28986743 112.57973487 -7.62910907 120.24028254 -18.296875 124.234375 C-21.51744477 125.23989226 -24.72901447 126.17377956 -28 127 C-28.7528125 127.19335938 -29.505625 127.38671875 -30.28125 127.5859375 C-50.97353881 130.7373493 -72.50839331 126.50309109 -89.5546875 114.1484375 C-91.5 112.5 -91.5 112.5 -94 110 C-92.79641403 106.57440916 -91.64107354 104.46741391 -89 102 C-88.2471875 102.58007812 -87.494375 103.16015625 -86.71875 103.7578125 C-70.16134521 115.93473883 -52.16249181 120.35503531 -31.68408203 117.69970703 C-22.24660519 115.99151719 -14.19389476 112.80352849 -8.5625 104.8125 C-6.03422557 100.26160603 -5.81082721 96.78517512 -5.75 91.625 C-5.72421875 90.31789063 -5.6984375 89.01078125 -5.671875 87.6640625 C-6.01407095 83.84287441 -6.8571967 82.10142583 -9 79 C-9 78.34 -9 77.68 -9 77 C-9.56203125 76.72800781 -10.1240625 76.45601563 -10.703125 76.17578125 C-12.23979774 75.38915116 -13.7515653 74.55195145 -15.234375 73.66796875 C-25.70645564 67.50505172 -37.09210239 64.66917107 -48.8046875 61.796875 C-77.72576746 54.58428293 -77.72576746 54.58428293 -86 42 C-86.41121094 41.37996094 -86.82242188 40.75992188 -87.24609375 40.12109375 C-91.48961432 32.38290918 -91.25355397 22.42267727 -89.3046875 13.9921875 C-85.78457313 4.31926817 -78.84181835 -2.00944987 -70 -7 C-46.96388108 -16.60321834 -21.02860328 -12.50349384 0 0 Z " fill="#2C3252" transform="translate(186,394)"/>
<path d="M0 0 C3.07917396 1.37111616 5.16787036 2.92754931 7.5291748 5.3223114 C8.55107155 6.35092285 8.55107155 6.35092285 9.59361267 7.40031433 C10.33035721 8.15210464 11.06710175 8.90389496 11.82617188 9.6784668 C12.61037003 10.47040436 13.39456818 11.26234192 14.20252991 12.07827759 C15.90431857 13.79771882 17.60389798 15.51934879 19.30152893 17.24289513 C21.98560768 19.96632357 24.67708807 22.68222207 27.37097168 25.39595032 C35.0290691 33.11217037 42.67754096 40.83780886 50.31103516 48.57836914 C54.97938578 53.31201959 59.66076698 58.03253912 64.34950256 62.74601173 C66.13719928 64.54801376 67.9202016 66.35468508 69.69847107 68.16599083 C72.17902576 70.69199743 74.67441387 73.20239041 77.17382812 75.7097168 C77.91057266 76.4675798 78.6473172 77.22544281 79.40638733 78.00627136 C80.08765182 78.68355286 80.76891632 79.36083435 81.4708252 80.05863953 C82.35348431 80.95210854 82.35348431 80.95210854 83.25397491 81.86362743 C84.9506559 83.22747513 84.9506559 83.22747513 87.1092453 82.78783894 C90.25095099 81.47875423 92.02405283 78.92233925 94.21875 76.3984375 C96 75 96 75 97.96484375 75.04296875 C100.56663872 76.26646159 102.09771145 77.84399698 104.0625 79.9375 C106.33937714 82.34548331 108.22254228 84.14836152 111 86 C111.94753168 87.05644337 112.86226969 88.14283073 113.75 89.25 C116.8305186 92.94197832 120.26672221 95.98466025 124 99 C123.54047971 103.33105908 120.7230173 105.74456928 117.79296875 108.67578125 C117.0102636 109.46990669 117.0102636 109.46990669 116.21174622 110.28007507 C115.10850389 111.39410394 114.00127965 112.50420164 112.89038086 113.6105957 C111.18984107 115.31016027 109.51175655 117.02994497 107.83398438 118.75195312 C106.75911519 119.83202715 105.68298486 120.91084787 104.60546875 121.98828125 C104.10428024 122.50586502 103.60309174 123.02344879 103.0867157 123.55671692 C99.61877236 126.95700236 99.61877236 126.95700236 97.00439453 127.13867188 C94.03305572 125.45069085 91.72252646 123.19032455 89.32421875 120.79296875 C88.53009331 120.0102636 88.53009331 120.0102636 87.71992493 119.21174622 C86.60589606 118.10850389 85.49579836 117.00127965 84.3894043 115.89038086 C82.68983973 114.18984107 80.97005503 112.51175655 79.24804688 110.83398438 C78.16797285 109.75911519 77.08915213 108.68298486 76.01171875 107.60546875 C75.49413498 107.10428024 74.97655121 106.60309174 74.44328308 106.0867157 C71.00018411 102.57510694 71.00018411 102.57510694 70.99926758 99.7121582 C72 98 72 98 75 97 C75 96.34 75 95.68 75 95 C76.62553283 93.29319053 78.29115995 91.62339805 80 90 C79.41334438 89.73838388 78.82668877 89.47676777 78.22225571 89.20722389 C75.87114677 87.93000144 74.32909425 86.5754579 72.44390869 84.68441772 C71.75686356 84.00012192 71.06981842 83.31582611 70.36195374 82.61079407 C69.24741066 81.48546516 69.24741066 81.48546516 68.11035156 80.33740234 C67.31972824 79.54707108 66.52910492 78.75673981 65.71452332 77.94245911 C63.10178891 75.32833109 60.49621046 72.70718956 57.890625 70.0859375 C56.08073808 68.27232057 54.27040917 66.45914463 52.45965576 64.64639282 C48.18137929 60.36125966 43.90758699 56.07170349 39.63593364 51.77997172 C34.77168982 46.89336221 29.90175614 42.0124401 25.03133821 37.13198543 C15.01455201 27.09430211 5.00492579 17.04950407 -5 7 C-3.64062915 4.1394109 -2.35479531 2.14072301 0 0 Z " fill="#5F94EA" transform="translate(186,217)"/>
<path d="M0 0 C35.97 0 71.94 0 109 0 C109 2.97 109 5.94 109 9 C92.5 9 76 9 59 9 C59 51.57 59 94.14 59 138 C55.7 138 52.4 138 49 138 C49 95.43 49 52.86 49 9 C32.83 9 16.66 9 0 9 C0 6.03 0 3.06 0 0 Z " fill="#282E4E" transform="translate(201,383)"/>
<path d="M0 0 C3.01041443 1.69130953 5.2757487 4.02534125 7.65869141 6.48144531 C8.44925934 7.27838051 8.44925934 7.27838051 9.25579834 8.09141541 C10.93373828 9.78611731 12.60093369 11.49096123 14.26806641 13.19628906 C15.40539385 14.34866652 16.54340707 15.50036758 17.68212891 16.65136719 C20.46878632 19.47106091 23.24585432 22.29989495 26.01806641 25.13378906 C21.47821523 34.49760993 12.86231485 41.33269788 5.22509766 48.14550781 C3.78943131 49.43887802 2.38443831 50.76741716 1.01806641 52.13378906 C-2.45261882 51.82149837 -4.08726289 50.36138381 -6.41943359 47.88378906 C-7.02142578 47.25730469 -7.62341797 46.63082031 -8.24365234 45.98535156 C-8.81728516 45.37433594 -9.39091797 44.76332031 -9.98193359 44.13378906 C-13.46893773 40.31892873 -13.46893773 40.31892873 -17.98193359 38.13378906 C-18.98193359 36.4671224 -19.98193359 34.80045573 -20.98193359 33.13378906 C-22.90243169 31.03601422 -24.92353733 29.10070105 -26.98193359 27.13378906 C-25.39484704 23.27399912 -22.78489481 20.59791696 -19.89599609 17.67675781 C-19.39780365 17.1695369 -18.89961121 16.66231598 -18.38632202 16.13972473 C-17.33498747 15.07392737 -16.28085762 14.010881 -15.22412109 12.95043945 C-13.60696399 11.32131968 -12.00939635 9.67447187 -10.41162109 8.02636719 C-9.38673197 6.99202078 -8.36072756 5.95877802 -7.33349609 4.92675781 C-6.85731842 4.43104782 -6.38114075 3.93533783 -5.89053345 3.42460632 C-2.59712821 0.17531735 -2.59712821 0.17531735 0 0 Z " fill="#8270E5" transform="translate(283.98193359375,65.8662109375)"/>
<path d="M0 0 C2.39606953 0.80799389 2.39606953 0.80799389 4.39606953 2.80799389 C4.07754228 6.27409217 2.58789628 7.99563725 0.1896944 10.40877819 C-0.49586025 11.10568264 -1.18141491 11.80258709 -1.88774395 12.52060986 C-2.64462505 13.27456036 -3.40150616 14.02851086 -4.18132305 14.80530834 C-4.97483669 15.60729153 -5.76835033 16.40927471 -6.58590984 17.23556042 C-9.21561156 19.8886949 -11.85640562 22.53044697 -14.49846172 25.17127514 C-16.32620786 27.00611769 -18.15365253 28.84126058 -19.9808073 30.67669201 C-23.81329392 34.522637 -27.65158823 38.36266031 -31.49382305 42.19886303 C-35.9384522 46.63684286 -40.36809481 51.08939486 -44.79083043 55.54918414 C-49.04437059 59.83706508 -53.3116217 64.11101408 -57.58443546 68.37970066 C-59.40214117 70.1991052 -61.21584133 72.02252039 -63.02550983 73.84991932 C-65.5514342 76.3978602 -68.09258145 78.92956457 -70.6383543 81.45765209 C-71.38916271 82.22172375 -72.13997112 82.9857954 -72.9135313 83.77302074 C-73.60754543 84.45582607 -74.30155956 85.1386314 -75.01660442 85.8421278 C-75.61631463 86.44255052 -76.21602484 87.04297323 -76.83390808 87.66159058 C-78.60393047 88.80799389 -78.60393047 88.80799389 -80.71876335 88.59101677 C-82.89025187 87.68906745 -84.07150918 86.57027838 -85.60393047 84.80799389 C-84.23484364 81.74675988 -82.67640738 79.62336892 -80.32199383 77.24517345 C-79.64492382 76.55668316 -78.96785381 75.86819286 -78.27026653 75.15883923 C-77.15672047 74.04193958 -77.15672047 74.04193958 -76.02067852 72.90247631 C-75.23837872 72.1102467 -74.45607891 71.31801708 -73.65007305 70.50178051 C-71.06087822 67.88337703 -68.46395465 65.27282396 -65.86564922 62.66346264 C-64.06443895 60.85075075 -62.26323563 59.03803195 -60.46203899 57.22530651 C-57.16804629 53.91299073 -53.87121407 50.60355105 -50.57108182 47.29735583 C-45.71254439 42.42984256 -40.86738687 37.54950953 -36.03337163 32.65764445 C-31.84427627 28.42016514 -27.63880914 24.1991978 -23.4271822 19.98410511 C-21.63718561 18.188039 -19.85221174 16.386953 -18.07231998 14.58087254 C-15.58719538 12.06179658 -13.08401189 9.56216058 -10.57536602 7.06653881 C-9.83907467 6.31181789 -9.10278332 5.55709698 -8.34418011 4.77950573 C-7.65865063 4.10511456 -6.97312115 3.43072338 -6.26681805 2.73589611 C-5.6767028 2.14284774 -5.08658754 1.54979937 -4.47859001 0.93877983 C-2.60393047 -0.19200611 -2.60393047 -0.19200611 0 0 Z " fill="#A949E1" transform="translate(267.60393047332764,104.19200611114502)"/>
<path d="M0 0 C3 0 3 0 4.6484375 1.57421875 C5.21820313 2.27160156 5.78796875 2.96898438 6.375 3.6875 C8.47628281 6.22245182 10.54272568 8.56041758 13 10.75 C15 13 15 13 14.95703125 14.77734375 C13.54241026 18.06272882 11.18501237 20.32791137 8.6875 22.8125 C8.20087891 23.32748047 7.71425781 23.84246094 7.21289062 24.37304688 C5.76171875 25.83203125 5.76171875 25.83203125 3 28 C-0.19584302 27.68698277 -1.82073726 26.54380391 -4.015625 24.27734375 C-4.54414063 23.73916016 -5.07265625 23.20097656 -5.6171875 22.64648438 C-6.15601563 22.08251953 -6.69484375 21.51855469 -7.25 20.9375 C-7.80429687 20.36966797 -8.35859375 19.80183594 -8.9296875 19.21679688 C-10.29334214 17.81787531 -11.64760417 16.40980886 -13 15 C-11.26142784 11.23309364 -9.09741625 8.78767463 -6 6 C-5.34 6 -4.68 6 -4 6 C-4 5.34 -4 4.68 -4 4 C-3.34 4 -2.68 4 -2 4 C-2 3.34 -2 2.68 -2 2 C-1.34 2 -0.68 2 0 2 C0 1.34 0 0.68 0 0 Z " fill="#DAE7FA" transform="translate(282,78)"/>
<path d="M0 0 C3.06907743 1.94231823 5.47515507 4.44422614 7.984375 7.0390625 C8.49097656 7.5546875 8.99757812 8.0703125 9.51953125 8.6015625 C10.76241402 9.86789589 11.99902776 11.1403769 13.234375 12.4140625 C11.65463816 16.2429162 9.21377043 18.70180009 6.296875 21.6015625 C5.42160156 22.48199219 4.54632813 23.36242187 3.64453125 24.26953125 C1.234375 26.4140625 1.234375 26.4140625 -1.765625 27.4140625 C-3.96882433 25.34538687 -6.15235475 23.26124456 -8.328125 21.1640625 C-8.95654297 20.57753906 -9.58496094 19.99101562 -10.23242188 19.38671875 C-10.82216797 18.81308594 -11.41191406 18.23945313 -12.01953125 17.6484375 C-12.56939697 17.12475586 -13.1192627 16.60107422 -13.68579102 16.06152344 C-14.765625 14.4140625 -14.765625 14.4140625 -14.57568359 12.37084961 C-13.31986641 9.33728279 -11.16649294 7.49783236 -8.828125 5.2265625 C-7.93222656 4.34613281 -7.03632813 3.46570313 -6.11328125 2.55859375 C-2.42966676 -0.80630534 -2.42966676 -0.80630534 0 0 Z " fill="#DBE6FA" transform="translate(171.765625,191.5859375)"/>
<path d="M0 0 C2.26132175 1.24833146 2.80986228 2.58498278 3.7265625 4.953125 C4.3865625 4.953125 5.0465625 4.953125 5.7265625 4.953125 C5.7265625 5.613125 5.7265625 6.273125 5.7265625 6.953125 C6.3659375 7.22125 7.0053125 7.489375 7.6640625 7.765625 C9.7265625 8.953125 9.7265625 8.953125 10.7265625 11.953125 C11.3865625 11.953125 12.0465625 11.953125 12.7265625 11.953125 C12.14964772 15.12167247 11.31009363 16.73538959 9.00390625 18.96875 C8.46572266 19.49726563 7.92753906 20.02578125 7.37304688 20.5703125 C6.80908203 21.10914063 6.24511719 21.64796875 5.6640625 22.203125 C5.09623047 22.75742188 4.52839844 23.31171875 3.94335938 23.8828125 C2.54443781 25.24646714 1.13637136 26.60072917 -0.2734375 27.953125 C-4.34719781 26.34301973 -7.03850819 23.41490229 -10.0234375 20.328125 C-10.53003906 19.8125 -11.03664063 19.296875 -11.55859375 18.765625 C-12.80147652 17.49929161 -14.03809026 16.2268106 -15.2734375 14.953125 C-13.65282717 10.95879719 -10.88004577 8.15754179 -7.8984375 5.140625 C-7.41632813 4.62564453 -6.93421875 4.11066406 -6.4375 3.58007812 C-2.85219833 -0.05880821 -2.85219833 -0.05880821 0 0 Z " fill="#D7EAFA" transform="translate(397.2734375,191.046875)"/>
<path d="M0 0 C3.01466156 1.73606969 5.38569425 4.02146793 7.8203125 6.46875 C8.33529297 6.95537109 8.85027344 7.44199219 9.38085938 7.94335938 C12.95631606 11.49967037 12.95631606 11.49967037 13.1640625 14.1484375 C11.42799281 17.16309906 9.14259457 19.53413175 6.6953125 21.96875 C6.20869141 22.48373047 5.72207031 22.99871094 5.22070312 23.52929688 C1.66439213 27.10475356 1.66439213 27.10475356 -0.984375 27.3125 C-3.99903656 25.57643031 -6.37006925 23.29103207 -8.8046875 20.84375 C-9.31966797 20.35712891 -9.83464844 19.87050781 -10.36523438 19.36914062 C-13.94069106 15.81282963 -13.94069106 15.81282963 -14.1484375 13.1640625 C-12.41236781 10.14940094 -10.12696957 7.77836825 -7.6796875 5.34375 C-7.19306641 4.82876953 -6.70644531 4.31378906 -6.20507812 3.78320312 C-2.64876713 0.20774644 -2.64876713 0.20774644 0 0 Z " fill="#DBEAFA" transform="translate(283.9921875,303.84375)"/>
</svg>
